<?xml version="1.0" encoding="UTF-8" standalone="no"?>
<svg
   xmlns:dc="http://purl.org/dc/elements/1.1/"
   xmlns:cc="http://creativecommons.org/ns#"
   xmlns:rdf="http://www.w3.org/1999/02/22-rdf-syntax-ns#"
   xmlns:svg="http://www.w3.org/2000/svg"
   xmlns="http://www.w3.org/2000/svg"
   xmlns:sodipodi="http://sodipodi.sourceforge.net/DTD/sodipodi-0.dtd"
   xmlns:inkscape="http://www.inkscape.org/namespaces/inkscape"
   id="svg14"
   xml:space="preserve"
   width="44.161774"
   viewBox="0 0 44.161774 39.822033"
   version="1.1"
   height="39.822033"
   sodipodi:docname="close.svg"
   inkscape:version="0.92.3 (2405546, 2018-03-11)"><sodipodi:namedview
     pagecolor="#ffffff"
     bordercolor="#666666"
     borderopacity="1"
     objecttolerance="10"
     gridtolerance="10"
     guidetolerance="10"
     inkscape:pageopacity="0"
     inkscape:pageshadow="2"
     inkscape:window-width="1152"
     inkscape:window-height="801"
     id="namedview12"
     showgrid="false"
     inkscape:zoom="0.4609375"
     inkscape:cx="1132.8605"
     inkscape:cy="-633.10594"
     inkscape:window-x="-8"
     inkscape:window-y="-8"
     inkscape:window-maximized="1"
     inkscape:current-layer="svg14" /><metadata
     id="metadata20"><rdf:RDF><cc:Work
         rdf:about=""><dc:format>image/svg+xml</dc:format><dc:type
           rdf:resource="http://purl.org/dc/dcmitype/StillImage" /><dc:title /></cc:Work></rdf:RDF></metadata><defs
     id="defs18" /><style
     id="style2"
     type="text/css">
<![CDATA[
	.st0{display:inline;}
	.st1{fill:none;stroke:#000000;stroke-width:16;stroke-linecap:round;stroke-linejoin:round;stroke-miterlimit:10;}
	.st2{display:none;}
]]>
</style><g
     id="cross"
     class="st2"
     style="display:none"
     transform="translate(876.86054,416.92797)"><g
       id="g8"
       class="st0"
       style="display:inline"><line
         id="line4"
         y2="401"
         y1="112.5"
         x2="401"
         x1="112.5"
         class="st1"
         style="fill:none;stroke:#000000;stroke-width:16;stroke-linecap:round;stroke-linejoin:round;stroke-miterlimit:10" /><line
         id="line6"
         y2="401"
         y1="112.5"
         x2="112.5"
         x1="401"
         class="st1"
         style="fill:none;stroke:#000000;stroke-width:16;stroke-linecap:round;stroke-linejoin:round;stroke-miterlimit:10" /></g></g><g
     id="cross_copy"
     transform="matrix(0.30221321,0,0,0.29916598,-31.581053,-31.262845)"><path
       style="stroke-width:0.45801985"
       id="path11"
       d="m 182.99288,171.05508 66.50985,-60.58501 c 1.49919,-1.36564 1.49919,-3.57977 0,-4.94541 -1.49967,-1.36563 -3.92985,-1.36563 -5.42951,0 l -66.50986,60.58458 -66.50985,-60.58501 c -1.49918,-1.36564 -3.92984,-1.36564 -5.42903,0 -1.49967,1.36563 -1.49967,3.57976 0,4.9454 l 66.50937,60.58545 -66.50985,60.58502 c -1.49967,1.36608 -1.49967,3.57977 0,4.94584 0.74959,0.68282 1.73193,1.02423 2.71476,1.02423 0.98282,0 1.96516,-0.34141 2.71475,-1.02423 l 66.50985,-60.58501 66.50986,60.58501 c 0.75007,0.68282 1.73193,1.02423 2.71475,1.02423 0.98282,0 1.96517,-0.34141 2.71476,-1.02423 1.49919,-1.36607 1.49919,-3.57976 0,-4.94584 z"
       inkscape:connector-curvature="0" /></g></svg>